<?xml version="1.0" standalone="no"?>
<!DOCTYPE svg PUBLIC "-//W3C//DTD SVG 20010904//EN"
 "http://www.w3.org/TR/2001/REC-SVG-20010904/DTD/svg10.dtd">
<svg version="1.0" xmlns="http://www.w3.org/2000/svg"
 width="1024.000000pt" height="1024.000000pt" viewBox="0 0 1024.000000 1024.000000"
 preserveAspectRatio="xMidYMid meet">

<g transform="translate(0.000000,1024.000000) scale(0.100000,-0.100000)"
fill="#000000" stroke="none">
<path d="M2880 6733 c0 -1 18 -44 41 -95 37 -87 249 -589 514 -1223 62 -148
184 -436 270 -640 86 -203 194 -458 239 -565 46 -107 111 -261 146 -343 l62
-147 220 2 220 3 105 305 c58 168 119 347 136 399 l31 95 13 -78 c27 -162 98
-294 227 -421 178 -176 423 -274 768 -306 178 -16 489 -6 618 20 516 104 807
433 787 890 -6 137 -23 206 -78 321 -35 70 -58 101 -133 175 -161 159 -304
218 -887 365 -665 168 -751 218 -751 433 -1 67 4 86 31 142 37 74 92 126 160
151 61 23 401 31 540 14 240 -30 399 -126 487 -294 l29 -56 277 0 277 0 -5 38
c-59 422 -352 689 -864 788 -65 12 -169 17 -447 21 -343 5 -365 4 -445 -16
-261 -66 -443 -232 -554 -507 -20 -49 -144 -397 -274 -774 -271 -778 -282
-810 -290 -810 -3 0 -14 24 -24 53 -10 28 -62 158 -116 287 -54 129 -138 334
-188 455 -50 121 -180 438 -290 705 -109 267 -210 513 -223 547 l-24 62 -302
3 c-167 2 -303 2 -303 1z m2495 -1534 c156 -76 289 -119 684 -219 437 -110
534 -149 601 -241 40 -55 53 -109 48 -190 -12 -167 -145 -289 -354 -326 -129
-22 -468 -13 -575 15 -165 44 -296 144 -355 269 l-29 63 -256 2 -256 3 67 190
c37 105 97 279 134 387 l68 198 52 -46 c29 -26 102 -71 171 -105z"/>
</g>
</svg>
