<?xml version="1.0" standalone="no"?>
<!DOCTYPE svg PUBLIC "-//W3C//DTD SVG 20010904//EN"
 "http://www.w3.org/TR/2001/REC-SVG-20010904/DTD/svg10.dtd">
<svg version="1.0" xmlns="http://www.w3.org/2000/svg"
 width="1024.000000pt" height="1024.000000pt" viewBox="0 0 1024.000000 1024.000000"
 preserveAspectRatio="xMidYMid meet">

<g transform="translate(0.000000,1024.000000) scale(0.100000,-0.100000)"
fill="#000000" stroke="none">
<path d="M0 5120 l0 -5120 5120 0 5120 0 0 5120 0 5120 -5120 0 -5120 0 0
-5120z m6555 1834 c473 -27 846 -259 990 -617 33 -81 58 -189 71 -299 l6 -58
-320 0 -320 0 -7 38 c-21 114 -133 250 -247 301 -132 60 -163 63 -534 68 -230
3 -359 1 -395 -6 -128 -27 -230 -104 -285 -216 -26 -54 -29 -70 -29 -160 0
-91 2 -104 27 -146 33 -56 72 -91 142 -126 96 -49 183 -74 891 -253 436 -111
550 -145 661 -195 241 -110 382 -290 439 -560 23 -108 23 -322 0 -429 -64
-303 -211 -487 -500 -627 -231 -112 -358 -142 -687 -160 -215 -12 -462 -2
-618 26 -345 61 -681 225 -823 400 -102 126 -166 305 -168 467 0 50 -3 67 -9
53 -5 -11 -79 -207 -164 -435 -86 -228 -164 -437 -174 -463 l-19 -48 -259 1
c-142 0 -262 4 -265 8 -4 4 -62 138 -129 297 -67 160 -314 740 -547 1290 -370
870 -765 1804 -780 1843 -4 9 69 12 346 12 l352 0 20 -47 c120 -277 489 -1169
679 -1643 280 -699 313 -780 320 -780 6 0 80 204 322 885 88 248 192 536 232
640 40 105 86 224 101 265 37 99 108 241 158 314 137 202 366 332 639 365 72
9 710 5 883 -5z"/>
<path d="M5100 5143 c-35 -93 -105 -277 -155 -410 l-92 -243 301 0 301 0 25
-58 c29 -70 122 -170 200 -216 146 -88 297 -125 545 -133 358 -11 585 39 701
155 69 69 108 158 108 247 -1 82 -17 126 -69 184 -79 87 -146 112 -610 227
-187 46 -412 102 -500 125 -307 77 -501 153 -623 243 -34 25 -64 46 -66 46 -1
0 -31 -75 -66 -167z"/>
</g>
</svg>
