<?xml version="1.0" standalone="no"?>
<!DOCTYPE svg PUBLIC "-//W3C//DTD SVG 20010904//EN"
 "http://www.w3.org/TR/2001/REC-SVG-20010904/DTD/svg10.dtd">
<svg version="1.0" xmlns="http://www.w3.org/2000/svg"
 width="1024.000000pt" height="1024.000000pt" viewBox="0 0 1024.000000 1024.000000"
 preserveAspectRatio="xMidYMid meet">

<g transform="translate(0.000000,1024.000000) scale(0.100000,-0.100000)"
fill="#000000" stroke="none">
<path d="M0 5120 l0 -5120 5120 0 5120 0 0 5120 0 5120 -5120 0 -5120 0 0
-5120z m7615 1936 c28 -7 64 -20 81 -29 42 -22 108 -96 138 -156 59 -115 56
-27 56 -1731 0 -1404 -2 -1572 -16 -1621 -36 -121 -123 -226 -232 -277 l-57
-27 -2445 0 c-2370 0 -2447 1 -2500 19 -123 42 -197 108 -257 229 l-35 72 6
1611 c5 1587 6 1611 26 1677 26 84 96 164 178 204 l57 28 345 5 c190 3 1304 7
2475 8 1750 1 2139 -1 2180 -12z"/>
<path d="M2934 6550 c-75 -16 -133 -95 -120 -162 8 -43 24 -58 441 -419 187
-161 461 -399 609 -528 l269 -235 -89 -85 c-138 -133 -570 -539 -874 -821
-339 -314 -347 -322 -355 -359 -23 -107 109 -201 200 -143 26 16 810 740 1188
1096 71 67 132 122 137 124 4 2 111 -82 236 -187 142 -118 251 -201 289 -220
180 -89 398 -78 562 28 32 21 144 111 248 200 105 89 197 167 206 172 13 7 67
-38 260 -218 490 -455 1077 -991 1097 -1002 32 -17 94 -13 129 9 40 24 63 67
63 119 0 51 -22 76 -220 255 -360 325 -1094 1013 -1097 1029 -1 7 52 59 119
116 66 58 224 194 351 304 583 503 826 720 837 748 40 95 -56 210 -152 185
-13 -3 -48 -27 -80 -53 -87 -74 -1220 -1054 -1837 -1589 -45 -39 -101 -68
-174 -89 -53 -15 -61 -15 -114 0 -91 27 -141 57 -248 150 -55 48 -163 142
-240 209 -77 67 -369 319 -650 561 -280 242 -600 518 -710 613 -110 96 -211
179 -225 186 -15 8 -37 10 -56 6z"/>
</g>
</svg>
