<?xml version="1.0" standalone="no"?>
<!DOCTYPE svg PUBLIC "-//W3C//DTD SVG 20010904//EN"
 "http://www.w3.org/TR/2001/REC-SVG-20010904/DTD/svg10.dtd">
<svg version="1.0" xmlns="http://www.w3.org/2000/svg"
 width="1024.000000pt" height="1024.000000pt" viewBox="0 0 1024.000000 1024.000000"
 preserveAspectRatio="xMidYMid meet">

<g transform="translate(0.000000,1024.000000) scale(0.100000,-0.100000)"
fill="#000000" stroke="none">
<path d="M0 5120 l0 -5120 5120 0 5120 0 0 5120 0 5120 -5120 0 -5120 0 0
-5120z m4125 2536 c55 -33 96 -86 142 -186 19 -41 127 -262 241 -490 190 -382
207 -419 210 -476 3 -51 0 -72 -20 -116 -30 -63 -80 -114 -317 -315 -202 -172
-221 -197 -221 -303 0 -250 378 -820 869 -1311 251 -250 411 -357 550 -367 41
-3 84 1 107 8 21 7 125 72 229 143 105 72 213 146 240 164 68 45 173 77 228
69 91 -14 134 -46 417 -306 506 -465 541 -499 567 -557 43 -94 30 -200 -36
-297 -55 -80 -439 -457 -503 -495 -135 -78 -257 -111 -421 -111 -414 0 -1030
305 -1652 821 -134 111 -495 473 -630 633 -585 686 -938 1365 -1061 2041 -28
155 -26 494 5 635 60 279 188 468 411 605 156 96 361 208 415 228 72 26 169
18 230 -17z"/>
</g>
</svg>
